<svg width="80" height="80" viewBox="0 0 80 80" fill="none" xmlns="http://www.w3.org/2000/svg">
  <g clip-path="url(#clip0_129_1390)">
    <circle cx="40" cy="40" r="40" fill="#F8F9FA"/>
    <path d="M47.9999 33.3333H49.3333V34.6667C49.3333 35.0203 49.4737 35.3594 49.7238 35.6095C49.9738 35.8595 50.313 36 50.6666 36C51.0202 36 51.3593 35.8595 51.6094 35.6095C51.8594 35.3594 51.9999 35.0203 51.9999 34.6667V33.3333H53.3333C53.6869 33.3333 54.026 33.1929 54.2761 32.9428C54.5261 32.6928 54.6666 32.3536 54.6666 32C54.6666 31.6464 54.5261 31.3072 54.2761 31.0572C54.026 30.8071 53.6869 30.6667 53.3333 30.6667H51.9999V29.3333C51.9999 28.9797 51.8594 28.6406 51.6094 28.3905C51.3593 28.1405 51.0202 28 50.6666 28C50.313 28 49.9738 28.1405 49.7238 28.3905C49.4737 28.6406 49.3333 28.9797 49.3333 29.3333V30.6667H47.9999C47.6463 30.6667 47.3072 30.8071 47.0571 31.0572C46.8071 31.3072 46.6666 31.6464 46.6666 32C46.6666 32.3536 46.8071 32.6928 47.0571 32.9428C47.3072 33.1929 47.6463 33.3333 47.9999 33.3333ZM50.6666 45.3333C49.839 45.3376 49.033 45.5985 48.3599 46.08L45.0933 44.1467C45.2474 43.6683 45.3283 43.1693 45.3333 42.6667C45.3294 41.4873 44.9348 40.3424 44.211 39.4111C43.4872 38.4799 42.4752 37.8149 41.3333 37.52V34.4267C42.2229 34.1121 42.9727 33.4932 43.4501 32.6794C43.9275 31.8655 44.1019 30.909 43.9423 29.979C43.7828 29.049 43.2996 28.2054 42.5781 27.5972C41.8567 26.989 40.9435 26.6554 39.9999 26.6554C39.0563 26.6554 38.1431 26.989 37.4217 27.5972C36.7003 28.2054 36.2171 29.049 36.0575 29.979C35.898 30.909 36.0723 31.8655 36.5497 32.6794C37.0272 33.4932 37.777 34.1121 38.6666 34.4267V37.52C37.5246 37.8149 36.5126 38.4799 35.7888 39.4111C35.0651 40.3424 34.6704 41.4873 34.6666 42.6667C34.6715 43.1693 34.7525 43.6683 34.9066 44.1467L31.6399 46.08C30.9668 45.5985 30.1609 45.3376 29.3333 45.3333C28.5421 45.3333 27.7688 45.5679 27.111 46.0075C26.4532 46.447 25.9405 47.0717 25.6377 47.8026C25.335 48.5335 25.2558 49.3378 25.4101 50.1137C25.5645 50.8896 25.9454 51.6024 26.5048 52.1618C27.0642 52.7212 27.777 53.1021 28.5529 53.2565C29.3288 53.4108 30.1331 53.3316 30.864 53.0289C31.5949 52.7261 32.2196 52.2134 32.6591 51.5556C33.0987 50.8978 33.3333 50.1245 33.3333 49.3333C33.3283 48.9722 33.2745 48.6134 33.1733 48.2667L36.2399 46.44C37.2392 47.4333 38.5909 47.9909 39.9999 47.9909C41.4089 47.9909 42.7607 47.4333 43.7599 46.44L46.8266 48.2667C46.6032 49.0741 46.6389 49.9314 46.9289 50.7174C47.2188 51.5035 47.7482 52.1787 48.4424 52.6477C49.1366 53.1167 49.9606 53.356 50.798 53.3316C51.6355 53.3073 52.4441 53.0206 53.1099 52.512C53.7757 52.0034 54.265 51.2986 54.5087 50.497C54.7525 49.6955 54.7384 48.8376 54.4684 48.0445C54.1985 47.2513 53.6863 46.563 53.0042 46.0766C52.322 45.5901 51.5044 45.3302 50.6666 45.3333ZM29.3333 50.6667C29.0695 50.6667 28.8118 50.5885 28.5925 50.442C28.3732 50.2955 28.2023 50.0872 28.1014 49.8436C28.0005 49.5999 27.9741 49.3319 28.0255 49.0732C28.077 48.8146 28.204 48.577 28.3904 48.3905C28.5769 48.2041 28.8145 48.0771 29.0731 48.0256C29.3318 47.9742 29.5999 48.0006 29.8435 48.1015C30.0871 48.2024 30.2954 48.3733 30.4419 48.5926C30.5884 48.8118 30.6666 49.0696 30.6666 49.3333C30.6666 49.687 30.5261 50.0261 30.2761 50.2761C30.026 50.5262 29.6869 50.6667 29.3333 50.6667ZM39.9999 29.3333C40.2636 29.3333 40.5214 29.4115 40.7407 29.558C40.9599 29.7046 41.1308 29.9128 41.2318 30.1564C41.3327 30.4001 41.3591 30.6681 41.3076 30.9268C41.2562 31.1854 41.1292 31.423 40.9427 31.6095C40.7563 31.7959 40.5187 31.9229 40.26 31.9744C40.0014 32.0258 39.7333 31.9994 39.4897 31.8985C39.246 31.7976 39.0378 31.6267 38.8913 31.4074C38.7448 31.1882 38.6666 30.9304 38.6666 30.6667C38.6666 30.313 38.8071 29.9739 39.0571 29.7239C39.3072 29.4738 39.6463 29.3333 39.9999 29.3333ZM39.9999 45.3333C39.4725 45.3333 38.9569 45.1769 38.5184 44.8839C38.0799 44.5909 37.7381 44.1744 37.5362 43.6872C37.3344 43.1999 37.2816 42.6637 37.3845 42.1464C37.4874 41.6291 37.7414 41.154 38.1143 40.7811C38.4872 40.4081 38.9624 40.1541 39.4797 40.0512C39.997 39.9483 40.5331 40.0012 41.0204 40.203C41.5077 40.4048 41.9242 40.7466 42.2172 41.1852C42.5102 41.6237 42.6666 42.1393 42.6666 42.6667C42.6666 43.3739 42.3856 44.0522 41.8855 44.5523C41.3854 45.0524 40.7072 45.3333 39.9999 45.3333ZM50.6666 50.6667C50.4029 50.6667 50.1451 50.5885 49.9258 50.442C49.7066 50.2955 49.5357 50.0872 49.4347 49.8436C49.3338 49.5999 49.3074 49.3319 49.3589 49.0732C49.4103 48.8146 49.5373 48.577 49.7238 48.3905C49.9102 48.2041 50.1478 48.0771 50.4065 48.0256C50.6651 47.9742 50.9332 48.0006 51.1768 48.1015C51.4205 48.2024 51.6287 48.3733 51.7752 48.5926C51.9217 48.8118 51.9999 49.0696 51.9999 49.3333C51.9999 49.687 51.8594 50.0261 51.6094 50.2761C51.3593 50.5262 51.0202 50.6667 50.6666 50.6667Z" fill="black"/>
  </g>
  <defs>
    <clipPath id="clip0_129_1390">
      <rect width="80" height="80" fill="white"/>
    </clipPath>
  </defs>
</svg>
