<svg width="80" height="80" viewBox="0 0 80 80" fill="none" xmlns="http://www.w3.org/2000/svg">
  <g clip-path="url(#clip0_129_1379)">
    <circle cx="40" cy="40" r="40" fill="#F8F9FA"/>
    <path d="M29.1698 45.1733C28.4207 45.9233 28 46.94 28 48C28 49.06 28.4207 50.0766 29.1698 50.8266C29.9198 51.5757 30.9365 51.9964 31.9965 51.9964C33.0565 51.9964 34.0731 51.5757 34.8231 50.8266C35.5297 50.0684 35.9144 49.0654 35.8961 48.0292C35.8778 46.9929 35.458 46.0042 34.7251 45.2713C33.9923 44.5384 33.0035 44.1186 31.9673 44.1004C30.931 44.0821 29.9281 44.4667 29.1698 45.1733ZM32.9431 48.9466C32.6921 49.1977 32.3515 49.3387 31.9965 49.3387C31.6414 49.3387 31.3009 49.1977 31.0498 48.9466C30.7987 48.6956 30.6577 48.355 30.6577 48C30.6577 47.6449 30.7987 47.3044 31.0498 47.0533C31.1738 46.9283 31.3212 46.8291 31.4837 46.7614C31.6462 46.6937 31.8205 46.6589 31.9965 46.6589C32.1725 46.6589 32.3468 46.6937 32.5092 46.7614C32.6717 46.8291 32.8192 46.9283 32.9431 47.0533C33.0681 47.1772 33.1673 47.3247 33.235 47.4872C33.3027 47.6497 33.3375 47.8239 33.3375 48C33.3375 48.176 33.3027 48.3503 33.235 48.5127C33.1673 48.6752 33.0681 48.8227 32.9431 48.9466ZM31.9965 38.6666C31.6429 38.6666 31.3037 38.8071 31.0537 39.0572C30.8036 39.3072 30.6631 39.6463 30.6631 40C30.6631 40.3536 30.8036 40.6927 31.0537 40.9428C31.3037 41.1928 31.6429 41.3333 31.9965 41.3333C33.7646 41.3333 35.4603 42.0357 36.7105 43.2859C37.9608 44.5362 38.6631 46.2319 38.6631 48C38.6631 48.3536 38.8036 48.6927 39.0537 48.9428C39.3037 49.1928 39.6429 49.3333 39.9965 49.3333C40.3501 49.3333 40.6892 49.1928 40.9393 48.9428C41.1893 48.6927 41.3298 48.3536 41.3298 48C41.3298 45.5246 40.3465 43.1506 38.5961 41.4003C36.8458 39.65 34.4718 38.6666 31.9965 38.6666ZM31.9965 33.3333C31.6429 33.3333 31.3037 33.4738 31.0537 33.7238C30.8036 33.9739 30.6631 34.313 30.6631 34.6666C30.6631 35.0203 30.8036 35.3594 31.0537 35.6094C31.3037 35.8595 31.6429 36 31.9965 36C35.1791 36 38.2313 37.2642 40.4818 39.5147C42.7322 41.7651 43.9965 44.8174 43.9965 48C43.9965 48.3536 44.137 48.6927 44.387 48.9428C44.6371 49.1928 44.9762 49.3333 45.3298 49.3333C45.6834 49.3333 46.0226 49.1928 46.2726 48.9428C46.5227 48.6927 46.6631 48.3536 46.6631 48C46.6528 44.1119 45.1102 40.3847 42.3698 37.6266C39.6117 34.8863 35.8845 33.3436 31.9965 33.3333ZM46.1431 33.8533C42.3815 30.1167 37.2985 28.0135 31.9965 28C31.6429 28 31.3037 28.1404 31.0537 28.3905C30.8036 28.6405 30.6631 28.9797 30.6631 29.3333C30.6631 29.6869 30.8036 30.0261 31.0537 30.2761C31.3037 30.5262 31.6429 30.6666 31.9965 30.6666C36.5936 30.6666 41.0024 32.4928 44.253 35.7434C47.5036 38.9941 49.3298 43.4029 49.3298 48C49.3298 48.3536 49.4703 48.6927 49.7203 48.9428C49.9704 49.1928 50.3095 49.3333 50.6631 49.3333C51.0168 49.3333 51.3559 49.1928 51.606 48.9428C51.856 48.6927 51.9965 48.3536 51.9965 48C51.9829 42.6979 49.8798 37.6149 46.1431 33.8533Z" fill="black"/>
  </g>
  <defs>
    <clipPath id="clip0_129_1379">
      <rect width="80" height="80" fill="white"/>
    </clipPath>
  </defs>
</svg>
