<svg width="80" height="80" viewBox="0 0 80 80" fill="none" xmlns="http://www.w3.org/2000/svg">
  <g clip-path="url(#clip0_95_1423)">
    <circle cx="40" cy="40" r="40" fill="#F8F9FA"/>
    <path d="M37.3332 41.3333C37.0695 41.3333 36.8117 41.4115 36.5924 41.558C36.3731 41.7045 36.2022 41.9128 36.1013 42.1564C36.0004 42.4001 35.974 42.6681 36.0255 42.9268C36.0769 43.1854 36.2039 43.423 36.3904 43.6095C36.5768 43.7959 36.8144 43.9229 37.0731 43.9744C37.3317 44.0258 37.5998 43.9994 37.8434 43.8985C38.0871 43.7976 38.2953 43.6267 38.4418 43.4074C38.5883 43.1882 38.6665 42.9304 38.6665 42.6667C38.6665 42.313 38.526 41.9739 38.276 41.7239C38.0259 41.4738 37.6868 41.3333 37.3332 41.3333ZM37.3332 36C37.0695 36 36.8117 36.0782 36.5924 36.2247C36.3731 36.3712 36.2022 36.5795 36.1013 36.8231C36.0004 37.0667 35.974 37.3348 36.0255 37.5935C36.0769 37.8521 36.2039 38.0897 36.3904 38.2761C36.5768 38.4626 36.8144 38.5896 37.0731 38.641C37.3317 38.6925 37.5998 38.6661 37.8434 38.5652C38.0871 38.4643 38.2953 38.2934 38.4418 38.0741C38.5883 37.8548 38.6665 37.597 38.6665 37.3333C38.6665 36.9797 38.526 36.6406 38.276 36.3905C38.0259 36.1405 37.6868 36 37.3332 36ZM42.6665 36C42.4028 36 42.145 36.0782 41.9257 36.2247C41.7065 36.3712 41.5356 36.5795 41.4347 36.8231C41.3337 37.0667 41.3073 37.3348 41.3588 37.5935C41.4102 37.8521 41.5372 38.0897 41.7237 38.2761C41.9102 38.4626 42.1477 38.5896 42.4064 38.641C42.665 38.6925 42.9331 38.6661 43.1767 38.5652C43.4204 38.4643 43.6286 38.2934 43.7751 38.0741C43.9216 37.8548 43.9998 37.597 43.9998 37.3333C43.9998 36.9797 43.8594 36.6406 43.6093 36.3905C43.3593 36.1405 43.0201 36 42.6665 36ZM51.9998 41.3333C52.3535 41.3333 52.6926 41.1929 52.9426 40.9428C53.1927 40.6928 53.3332 40.3536 53.3332 40C53.3332 39.6464 53.1927 39.3072 52.9426 39.0572C52.6926 38.8071 52.3535 38.6667 51.9998 38.6667H49.3332V36H51.9998C52.3535 36 52.6926 35.8595 52.9426 35.6095C53.1927 35.3594 53.3332 35.0203 53.3332 34.6667C53.3332 34.313 53.1927 33.9739 52.9426 33.7239C52.6926 33.4738 52.3535 33.3333 51.9998 33.3333H49.0932C48.8941 32.7741 48.573 32.2663 48.1533 31.8465C47.7336 31.4268 47.2257 31.1058 46.6665 30.9067V28C46.6665 27.6464 46.526 27.3072 46.276 27.0572C46.0259 26.8071 45.6868 26.6667 45.3332 26.6667C44.9795 26.6667 44.6404 26.8071 44.3904 27.0572C44.1403 27.3072 43.9998 27.6464 43.9998 28V30.6667H41.3332V28C41.3332 27.6464 41.1927 27.3072 40.9426 27.0572C40.6926 26.8071 40.3535 26.6667 39.9998 26.6667C39.6462 26.6667 39.3071 26.8071 39.057 27.0572C38.807 27.3072 38.6665 27.6464 38.6665 28V30.6667H35.9998V28C35.9998 27.6464 35.8594 27.3072 35.6093 27.0572C35.3593 26.8071 35.0201 26.6667 34.6665 26.6667C34.3129 26.6667 33.9737 26.8071 33.7237 27.0572C33.4736 27.3072 33.3332 27.6464 33.3332 28V30.9067C32.774 31.1058 32.2661 31.4268 31.8464 31.8465C31.4266 32.2663 31.1056 32.7741 30.9065 33.3333H27.9998C27.6462 33.3333 27.3071 33.4738 27.057 33.7239C26.807 33.9739 26.6665 34.313 26.6665 34.6667C26.6665 35.0203 26.807 35.3594 27.057 35.6095C27.3071 35.8595 27.6462 36 27.9998 36H30.6665V38.6667H27.9998C27.6462 38.6667 27.3071 38.8071 27.057 39.0572C26.807 39.3072 26.6665 39.6464 26.6665 40C26.6665 40.3536 26.807 40.6928 27.057 40.9428C27.3071 41.1929 27.6462 41.3333 27.9998 41.3333H30.6665V44H27.9998C27.6462 44 27.3071 44.1405 27.057 44.3905C26.807 44.6406 26.6665 44.9797 26.6665 45.3333C26.6665 45.687 26.807 46.0261 27.057 46.2761C27.3071 46.5262 27.6462 46.6667 27.9998 46.6667H30.9065C31.1056 47.2259 31.4266 47.7337 31.8464 48.1535C32.2661 48.5732 32.774 48.8942 33.3332 49.0933V52C33.3332 52.3536 33.4736 52.6928 33.7237 52.9428C33.9737 53.1929 34.3129 53.3333 34.6665 53.3333C35.0201 53.3333 35.3593 53.1929 35.6093 52.9428C35.8594 52.6928 35.9998 52.3536 35.9998 52V49.3333H38.6665V52C38.6665 52.3536 38.807 52.6928 39.057 52.9428C39.3071 53.1929 39.6462 53.3333 39.9998 53.3333C40.3535 53.3333 40.6926 53.1929 40.9426 52.9428C41.1927 52.6928 41.3332 52.3536 41.3332 52V49.3333H43.9998V52C43.9998 52.3536 44.1403 52.6928 44.3904 52.9428C44.6404 53.1929 44.9795 53.3333 45.3332 53.3333C45.6868 53.3333 46.0259 53.1929 46.276 52.9428C46.526 52.6928 46.6665 52.3536 46.6665 52V49.0933C47.2257 48.8942 47.7336 48.5732 48.1533 48.1535C48.573 47.7337 48.8941 47.2259 49.0932 46.6667H51.9998C52.3535 46.6667 52.6926 46.5262 52.9426 46.2761C53.1927 46.0261 53.3332 45.687 53.3332 45.3333C53.3332 44.9797 53.1927 44.6406 52.9426 44.3905C52.6926 44.1405 52.3535 44 51.9998 44H49.3332V41.3333H51.9998ZM46.6665 45.3333C46.6665 45.687 46.526 46.0261 46.276 46.2761C46.0259 46.5262 45.6868 46.6667 45.3332 46.6667H34.6665C34.3129 46.6667 33.9737 46.5262 33.7237 46.2761C33.4736 46.0261 33.3332 45.687 33.3332 45.3333V34.6667C33.3332 34.313 33.4736 33.9739 33.7237 33.7239C33.9737 33.4738 34.3129 33.3333 34.6665 33.3333H45.3332C45.6868 33.3333 46.0259 33.4738 46.276 33.7239C46.526 33.9739 46.6665 34.313 46.6665 34.6667V45.3333ZM42.6665 41.3333C42.4028 41.3333 42.145 41.4115 41.9257 41.558C41.7065 41.7045 41.5356 41.9128 41.4347 42.1564C41.3337 42.4001 41.3073 42.6681 41.3588 42.9268C41.4102 43.1854 41.5372 43.423 41.7237 43.6095C41.9102 43.7959 42.1477 43.9229 42.4064 43.9744C42.665 44.0258 42.9331 43.9994 43.1767 43.8985C43.4204 43.7976 43.6286 43.6267 43.7751 43.4074C43.9216 43.1882 43.9998 42.9304 43.9998 42.6667C43.9998 42.313 43.8594 41.9739 43.6093 41.7239C43.3593 41.4738 43.0201 41.3333 42.6665 41.3333Z" fill="black"/>
  </g>
  <defs>
    <clipPath id="clip0_95_1423">
      <rect width="80" height="80" fill="white"/>
    </clipPath>
  </defs>
</svg>
