<svg width="80" height="80" viewBox="0 0 80 80" fill="none" xmlns="http://www.w3.org/2000/svg">
  <g clip-path="url(#clip0_129_1401)">
    <circle cx="40" cy="40" r="40" fill="#F8F9FA"/>
    <path d="M41.3333 50.6667H32C31.6464 50.6667 31.3072 50.5262 31.0572 50.2761C30.8071 50.0261 30.6667 49.687 30.6667 49.3333V30.6667C30.6667 30.313 30.8071 29.9739 31.0572 29.7239C31.3072 29.4738 31.6464 29.3333 32 29.3333H38.6667V33.3333C38.6667 34.3942 39.0881 35.4116 39.8382 36.1618C40.5884 36.9119 41.6058 37.3333 42.6667 37.3333H46.6667V40C46.6667 40.3536 46.8071 40.6928 47.0572 40.9428C47.3072 41.1929 47.6464 41.3333 48 41.3333C48.3536 41.3333 48.6928 41.1929 48.9428 40.9428C49.1929 40.6928 49.3333 40.3536 49.3333 40V36C49.3333 36 49.3333 36 49.3333 35.92C49.3194 35.7975 49.2926 35.6768 49.2533 35.56V35.44C49.1892 35.3029 49.1037 35.1769 49 35.0667L41 27.0667C40.8898 26.963 40.7638 26.8774 40.6267 26.8133C40.5869 26.8077 40.5465 26.8077 40.5067 26.8133C40.3712 26.7357 40.2216 26.6858 40.0667 26.6667H32C30.9391 26.6667 29.9217 27.0881 29.1716 27.8382C28.4214 28.5884 28 29.6058 28 30.6667V49.3333C28 50.3942 28.4214 51.4116 29.1716 52.1618C29.9217 52.9119 30.9391 53.3333 32 53.3333H41.3333C41.687 53.3333 42.0261 53.1929 42.2761 52.9428C42.5262 52.6928 42.6667 52.3536 42.6667 52C42.6667 51.6464 42.5262 51.3072 42.2761 51.0572C42.0261 50.8071 41.687 50.6667 41.3333 50.6667ZM41.3333 31.2133L44.7867 34.6667H42.6667C42.313 34.6667 41.9739 34.5262 41.7239 34.2761C41.4738 34.0261 41.3333 33.687 41.3333 33.3333V31.2133ZM34.6667 34.6667C34.313 34.6667 33.9739 34.8071 33.7239 35.0572C33.4738 35.3072 33.3333 35.6464 33.3333 36C33.3333 36.3536 33.4738 36.6928 33.7239 36.9428C33.9739 37.1929 34.313 37.3333 34.6667 37.3333H36C36.3536 37.3333 36.6928 37.1929 36.9428 36.9428C37.1929 36.6928 37.3333 36.3536 37.3333 36C37.3333 35.6464 37.1929 35.3072 36.9428 35.0572C36.6928 34.8071 36.3536 34.6667 36 34.6667H34.6667ZM42.6667 40H34.6667C34.313 40 33.9739 40.1405 33.7239 40.3905C33.4738 40.6406 33.3333 40.9797 33.3333 41.3333C33.3333 41.687 33.4738 42.0261 33.7239 42.2761C33.9739 42.5262 34.313 42.6667 34.6667 42.6667H42.6667C43.0203 42.6667 43.3594 42.5262 43.6095 42.2761C43.8595 42.0261 44 41.687 44 41.3333C44 40.9797 43.8595 40.6406 43.6095 40.3905C43.3594 40.1405 43.0203 40 42.6667 40ZM51.6133 47.0533L48.9467 44.3867C48.8199 44.2653 48.6703 44.1701 48.5067 44.1067C48.182 43.9733 47.8179 43.9733 47.4933 44.1067C47.3297 44.1701 47.1801 44.2653 47.0533 44.3867L44.3867 47.0533C44.1356 47.3044 43.9945 47.6449 43.9945 48C43.9945 48.3551 44.1356 48.6956 44.3867 48.9467C44.6377 49.1977 44.9783 49.3388 45.3333 49.3388C45.6884 49.3388 46.0289 49.1977 46.28 48.9467L46.6667 48.5467V52C46.6667 52.3536 46.8071 52.6928 47.0572 52.9428C47.3072 53.1929 47.6464 53.3333 48 53.3333C48.3536 53.3333 48.6928 53.1929 48.9428 52.9428C49.1929 52.6928 49.3333 52.3536 49.3333 52V48.5467L49.72 48.9467C49.844 49.0716 49.9914 49.1708 50.1539 49.2385C50.3164 49.3062 50.4907 49.3411 50.6667 49.3411C50.8427 49.3411 51.017 49.3062 51.1794 49.2385C51.3419 49.1708 51.4894 49.0716 51.6133 48.9467C51.7383 48.8227 51.8375 48.6752 51.9052 48.5128C51.9729 48.3503 52.0077 48.176 52.0077 48C52.0077 47.824 51.9729 47.6497 51.9052 47.4872C51.8375 47.3248 51.7383 47.1773 51.6133 47.0533ZM40 48C40.3536 48 40.6928 47.8595 40.9428 47.6095C41.1929 47.3594 41.3333 47.0203 41.3333 46.6667C41.3333 46.313 41.1929 45.9739 40.9428 45.7239C40.6928 45.4738 40.3536 45.3333 40 45.3333H34.6667C34.313 45.3333 33.9739 45.4738 33.7239 45.7239C33.4738 45.9739 33.3333 46.313 33.3333 46.6667C33.3333 47.0203 33.4738 47.3594 33.7239 47.6095C33.9739 47.8595 34.313 48 34.6667 48H40Z" fill="black"/>
  </g>
  <defs>
    <clipPath id="clip0_129_1401">
      <rect width="80" height="80" fill="white"/>
    </clipPath>
  </defs>
</svg>
