<svg width="27" height="16" viewBox="0 0 27 16" fill="none" xmlns="http://www.w3.org/2000/svg">
    <path d="M26.109 12.4837C26.0942 12.2018 25.9903 11.9496 25.8271 11.7122C25.9458 11.46 25.9904 11.1781 25.9607 10.911C25.931 10.644 25.842 10.3769 25.6788 10.1544C25.7975 9.90216 25.842 9.6351 25.8123 9.3532C25.7826 9.07131 25.6936 8.81909 25.5304 8.59654C25.6491 8.34431 25.6936 8.07726 25.6639 7.8102C25.6343 7.46895 25.5007 7.15739 25.2782 6.90516C25.1595 6.77163 25.0111 6.66778 24.8479 6.5936C24.6847 6.51941 24.4919 6.48974 24.3138 6.50458L21.6284 6.74196L21.5394 5.83693C21.48 5.2583 21.2723 4.8132 20.9162 4.50164C20.5602 4.2049 20.0854 4.07137 19.5068 4.13072L18.7946 4.19007C18.6611 4.2049 18.5572 4.26425 18.4682 4.36811C18.3792 4.47196 18.3495 4.59065 18.3643 4.72418L18.6166 7.60248C18.6166 7.61732 18.6166 7.64699 18.6166 7.67667C18.6462 7.98824 18.5721 8.00307 18.4088 8.01791L5.47133 9.19L2.5782 9.45706C2.56336 9.42739 2.53369 9.38288 2.53369 9.29386C2.53369 9.24935 2.53369 9.19 2.56336 9.13065C2.69689 9.10098 2.81558 9.04163 2.9046 8.93778C3.03813 8.83392 3.09748 8.68556 3.09748 8.53719C3.09748 8.52235 3.09748 8.49268 3.09748 8.47784C3.08264 8.31464 3.00846 8.16628 2.87493 8.04758C2.75624 7.95856 2.62271 7.89922 2.47434 7.89922C2.4595 7.86954 2.42983 7.82503 2.41499 7.73601C2.41499 7.66183 2.42983 7.60248 2.44467 7.57281C2.5782 7.54314 2.69689 7.48379 2.80075 7.37994C2.9046 7.26124 2.96395 7.12771 2.96395 6.96451C2.96395 6.94967 2.96395 6.92 2.96395 6.90516C2.94911 6.74196 2.87493 6.5936 2.7414 6.4749C2.62271 6.38588 2.48918 6.32654 2.34081 6.32654C2.31114 6.28203 2.28146 6.23752 2.28146 6.17817V6.16333C2.28146 6.11882 2.28146 6.05948 2.31114 6.00013C2.44467 5.97046 2.56336 5.91111 2.65238 5.80726C2.75624 5.68856 2.81558 5.5402 2.81558 5.39183V5.33248C2.80075 5.16928 2.72656 5.02092 2.59303 4.90222C2.47434 4.8132 2.34081 4.75386 2.19245 4.75386C2.17761 4.72418 2.14794 4.67967 2.1331 4.60549C2.1331 4.53131 2.14794 4.47196 2.14794 4.44229L5.27846 4.16039C5.3378 4.16039 5.39715 4.13072 5.4565 4.10105C5.51584 4.07137 5.56035 4.02686 5.60486 3.98235C5.64937 3.93784 5.67905 3.8785 5.69388 3.81915C5.70872 3.75981 5.72356 3.70046 5.70872 3.62628L5.56035 1.96458C5.53068 1.71235 5.56035 1.54915 5.64937 1.46013C5.72356 1.37111 5.85708 1.31177 6.07963 1.29693L6.24284 2.91412L6.25767 2.95863C6.28735 3.22569 6.37637 3.49275 6.52473 3.73013C6.70277 4.01203 7.07369 4.33843 7.7265 4.33843C7.77101 4.33843 7.81552 4.33843 7.86003 4.33843L24.6847 2.85477C24.7292 2.85477 24.7886 2.83994 24.8183 2.81026C24.8628 2.78059 24.9073 2.75092 24.937 2.72124C24.9666 2.67673 24.9963 2.64706 25.0111 2.58771C25.026 2.5432 25.026 2.49869 25.026 2.43935L24.7737 0.0654919L23.5275 0.228694L23.6758 1.71235L7.77101 3.10699C7.57813 3.12183 7.53362 3.10699 7.48911 2.8251C7.48911 2.79543 7.48911 2.76575 7.47427 2.73608L7.26656 0.436407C7.26656 0.377061 7.23689 0.317714 7.20722 0.258368C7.17754 0.199021 7.13303 0.154512 7.08852 0.110002C7.04401 0.0654919 6.98467 0.0358187 6.92532 0.0209821C6.86597 0.00614552 6.80663 -0.00869108 6.73244 0.00614552L6.02029 0.0654919C5.42682 0.124838 4.98173 0.332551 4.68499 0.688629C4.38826 1.04471 4.26957 1.51948 4.31408 2.11294L4.38826 3.00314L1.98473 3.21085C1.30225 3.2702 0.812641 3.95268 0.886824 4.72418C0.916498 5.00608 1.00552 5.27314 1.16872 5.49569C1.05003 5.74791 1.00552 6.0298 1.03519 6.3117C1.05003 6.57876 1.15388 6.83098 1.31709 7.05353C1.19839 7.30575 1.15388 7.57281 1.18356 7.85471C1.21323 8.12177 1.30225 8.38882 1.46545 8.61137C1.34676 8.8636 1.30225 9.14549 1.33192 9.41255C1.39127 10.1395 1.95506 10.7033 2.59303 10.7033L5.6197 10.4511L18.5424 9.27902H18.5721C19.3584 9.17516 19.67 8.70039 19.7887 8.40366C19.8777 8.1366 19.9222 7.85471 19.8925 7.58765L19.6996 5.40667H19.7145C19.9073 5.39183 20.0557 5.43634 20.1447 5.49569C20.2486 5.58471 20.3079 5.74791 20.3228 5.97046L20.4563 7.49863L20.4711 7.66183C20.486 7.79536 20.5453 7.89922 20.6492 7.98824C20.753 8.06242 20.8717 8.10693 20.9904 8.09209L24.3732 7.78052C24.4028 7.82503 24.4177 7.86954 24.4325 7.92889C24.4325 8.00307 24.4177 8.06242 24.4028 8.09209C24.2693 8.12177 24.1506 8.18111 24.0468 8.28497C23.9429 8.40366 23.8836 8.55203 23.8836 8.70039V8.75974C23.8984 8.92294 23.9726 9.07131 24.1061 9.19C24.2248 9.27902 24.3583 9.33837 24.5067 9.33837C24.5364 9.38288 24.566 9.44222 24.566 9.50157C24.566 9.56091 24.566 9.60542 24.5364 9.66477C24.4028 9.69444 24.2841 9.75379 24.1951 9.85765C24.0913 9.97634 24.0319 10.1247 24.0319 10.2731V10.3324C24.0468 10.4956 24.1209 10.644 24.2545 10.7627C24.3732 10.8517 24.5067 10.911 24.6551 10.911C24.6699 10.9407 24.6996 10.9852 24.7144 11.0742C24.7144 11.1336 24.7144 11.1781 24.6847 11.2375C24.5512 11.2671 24.4325 11.3265 24.3435 11.4303C24.2396 11.549 24.1803 11.6974 24.1803 11.8458V11.9051C24.1951 12.0683 24.2693 12.2167 24.4028 12.3205C24.5215 12.4095 24.6551 12.4689 24.8034 12.4689C24.8331 12.5134 24.8628 12.5727 24.8628 12.6321C24.8628 12.6914 24.8628 12.7359 24.8331 12.7953L3.17166 14.6944L3.0678 13.5223C3.05297 13.4333 3.02329 13.3591 2.94911 13.3146C2.88977 13.2552 2.80075 13.2404 2.71173 13.2404L2.10343 13.2997C2.01441 13.3146 1.94022 13.3442 1.88088 13.4184C1.82153 13.4778 1.80669 13.5668 1.80669 13.6558L2.01441 15.6588C2.02924 15.7626 2.07375 15.8516 2.14794 15.911C2.22212 15.9703 2.2963 16 2.38532 16C2.40016 16 2.41499 16 2.41499 16L23.661 14.1158L25.0111 13.9971C25.1892 13.9822 25.3672 13.9229 25.5156 13.819C25.6639 13.73 25.7975 13.5965 25.8865 13.4333C26.0645 13.1514 26.1536 12.8101 26.109 12.4837Z" fill="black"/>
</svg>
